<svg xmlns="http://www.w3.org/2000/svg" version="1.1" xmlns:xlink="http://www.w3.org/1999/xlink" xmlns:svgjs="http://svgjs.dev/svgjs" width="1000" height="1000" viewBox="0 0 1000 1000"><rect width="1000" height="1000" fill="#ffffff"></rect><g transform="matrix(0.7,0,0,0.7,149.5757575886413,282.1265587044535)"><svg viewBox="0 0 396 247" data-background-color="#ffffff" preserveAspectRatio="xMidYMid meet" height="623" width="1000" xmlns="http://www.w3.org/2000/svg" xmlns:xlink="http://www.w3.org/1999/xlink"><g id="tight-bounds" transform="matrix(1,0,0,1,0.24000000728858595,-0.09999999999999432)"><svg viewBox="0 0 395.52 247.2" height="247.2" width="395.52"><g><svg></svg></g><g><svg viewBox="0 0 395.52 247.2" height="247.2" width="395.52"><g><g><path xmlns="http://www.w3.org/2000/svg" d="M173.495 212.701c6.574 11.388 15.4 17.083 26.478 17.083 10.146 0 18.118-4.426 23.916-13.278 4.14-6.321 6.802-14.634 7.985-24.94h39.66c-3.365 12.337-10.214 23.498-20.546 33.481-15.271 14.753-33.026 22.13-53.267 22.13-20.965 0-38.902-7.713-53.81-23.139-9.182-9.469-15.536-20.293-19.063-32.472l40.888 0c1.634 7.96 4.22 15.005 7.759 21.135zM209.679 25.569c15.53-10.198 31.887-18.713 49.074-25.546 2.019 0.259 3.727 1.631 5.124 4.115 1.398 2.537 2.226 4.944 2.485 7.222-22.984 10.094-42.888 23.191-59.711 39.29-1.712 1.633-3.37 3.295-4.974 4.984l-29.41 0c11.762-11.345 24.233-21.366 37.412-30.065z" fill="#ff1300" fill-rule="nonzero" stroke="none" stroke-width="1" stroke-linecap="butt" stroke-linejoin="miter" stroke-miterlimit="10" stroke-dasharray="" stroke-dashoffset="0" font-family="none" font-weight="none" font-size="none" text-anchor="none" style="mix-blend-mode: normal" data-fill-palette-color="tertiary"></path></g></g><g transform="matrix(1,0,0,1,0,70.98837735849057)"><svg viewBox="0 0 395.52 105.22324528301887" height="105.22324528301887" width="395.52"><g><svg viewBox="0 0 395.52 105.22324528301887" height="105.22324528301887" width="395.52"><g><svg viewBox="0 0 395.52 105.22324528301887" height="105.22324528301887" width="395.52"><g><svg viewBox="0 0 395.52 105.22324528301887" height="105.22324528301887" width="395.52"><g id="textblocktransform"><svg viewBox="0 0 395.52 105.22324528301887" height="105.22324528301887" width="395.52" id="textblock"><g><svg viewBox="0 0 395.52 105.22324528301887" height="105.22324528301887" width="395.52"><g transform="matrix(1,0,0,1,0,0)"><svg width="395.52" viewBox="1.3700000047683716 -33.939998626708984 129.3800048828125 34.43000030517578" height="105.22324528301887" data-palette-color="#ed1703"><path d="M6.79-9.77L6.79-9.77Q6.79-6.35 8.06-4.15 9.33-1.95 11.47-1.95L11.47-1.95Q13.43-1.95 14.55-3.66 15.67-5.37 15.67-8.59L15.67-8.59Q15.67-11.87 14.4-13.79 13.13-15.72 10.45-15.72L10.45-15.72Q9.42-15.72 8.5-15.21 7.57-14.7 7.32-13.96L7.32-13.96Q6.84-12.5 6.79-9.77ZM11.18 0.29L11.18 0.29Q7.13 0.29 4.25-2.69 1.37-5.66 1.37-10.01L1.37-10.01Q1.37-13.87 2.93-17.38 4.49-20.9 7.1-23.58 9.72-26.27 12.72-28.25 15.72-30.22 19.04-31.54L19.04-31.54Q19.43-31.49 19.7-31.01 19.97-30.52 20.02-30.08L20.02-30.08Q15.58-28.13 12.33-25.02 9.08-21.92 7.86-17.77L7.86-17.77Q7.67-17.19 7.91-17.04L7.91-17.04Q7.96-17.04 8.01-17.09L8.01-17.09Q8.64-17.43 9.91-17.85 11.18-18.26 12.26-18.26L12.26-18.26Q15.87-18.26 18.43-15.53 21-12.79 21-9.28L21-9.28Q21-5.42 18.04-2.56 15.09 0.29 11.18 0.29ZM37.55-33.94L37.55-33.94Q39.6-33.94 40.94-33.42 42.28-32.91 42.72-32.18L42.72-32.18Q42.92-30.66 42.45-29.47 41.99-28.27 40.67-28.27L40.67-28.27Q39.84-28.27 39.18-29.08 38.52-29.88 37.79-30.69 37.06-31.49 36.08-31.49L36.08-31.49Q34.76-31.49 33.88-30.22 33.01-28.96 32.64-27.15 32.27-25.34 32.27-23.19L32.27-23.19 32.27-20.95Q32.27-20.9 32.37-20.8 32.47-20.7 32.57-20.7L32.57-20.7 37.94-20.7Q38.13-20.7 38.18-20.65 38.23-20.61 38.23-20.36L38.23-20.36Q38.23-19.29 37.64-18.12L37.64-18.12 32.57-18.12Q32.27-18.12 32.27-17.82L32.27-17.82 32.27-6.93Q32.27-4.05 32.66-2.54L32.66-2.54Q32.76-2.2 33.96-1.83 35.15-1.46 35.59-1.46L35.59-1.46Q35.74-1.46 35.76-0.76 35.79-0.05 35.69 0.2L35.69 0.2Q35.4 0.15 33.15 0 30.91-0.15 29.73-0.15L29.73-0.15Q28.56-0.15 26.41 0 24.27 0.15 23.87 0.2L23.87 0.2Q23.73 0.05 23.68-0.34 23.63-0.73 23.68-1.1 23.73-1.46 23.87-1.46L23.87-1.46Q24.41-1.46 25.58-1.83 26.76-2.2 26.85-2.54L26.85-2.54Q27.29-4.25 27.29-6.54L27.29-6.54 27.29-17.77Q27.29-18.12 27-18.12L27-18.12 24.07-18.12Q23.97-18.12 23.97-18.41L23.97-18.41Q23.97-18.95 24.66-19.82 25.34-20.7 26.22-20.7L26.22-20.7 27-20.7Q27.29-20.7 27.29-21L27.29-21 27.29-21.48Q27.29-26.61 30.34-30.27 33.4-33.94 37.55-33.94ZM51.07-19.29L51.07-19.29Q48.77-19.29 47.5-17.07 46.24-14.84 46.24-11.77L46.24-11.77Q46.24-7.81 47.82-4.88 49.41-1.95 52.24-1.95L52.24-1.95Q54.54-1.95 55.83-4.2 57.12-6.45 57.12-9.47L57.12-9.47Q57.12-12.01 56.49-14.18 55.85-16.36 54.44-17.82 53.02-19.29 51.07-19.29ZM51.7-21.58L51.7-21.58Q56.29-21.58 59.54-18.38 62.79-15.19 62.79-10.64L62.79-10.64Q62.79-6.1 59.59-2.88 56.39 0.34 51.75 0.34L51.75 0.34Q47.11 0.34 43.89-2.88 40.67-6.1 40.67-10.64L40.67-10.64Q40.67-15.23 43.87-18.41 47.07-21.58 51.7-21.58ZM75.82-19.29L75.82-19.29Q73.53-19.29 72.26-17.07 70.99-14.84 70.99-11.77L70.99-11.77Q70.99-7.81 72.58-4.88 74.16-1.95 76.99-1.95L76.99-1.95Q79.29-1.95 80.58-4.2 81.88-6.45 81.88-9.47L81.88-9.47Q81.88-12.01 81.24-14.18 80.61-16.36 79.19-17.82 77.78-19.29 75.82-19.29ZM76.46-21.58L76.46-21.58Q81.05-21.58 84.29-18.38 87.54-15.19 87.54-10.64L87.54-10.64Q87.54-6.1 84.34-2.88 81.14 0.34 76.51 0.34L76.51 0.34Q71.87 0.34 68.64-2.88 65.42-6.1 65.42-10.64L65.42-10.64Q65.42-15.23 68.62-18.41 71.82-21.58 76.46-21.58ZM100.72-19.34L100.72-19.34Q98.13-19.34 96.82-17.14 95.5-14.94 95.5-11.23L95.5-11.23Q95.5-7.08 97.01-4.76 98.53-2.44 101.26-2.44L101.26-2.44Q102.92-2.44 103.95-3.3 104.97-4.15 104.97-5.47L104.97-5.47 104.97-15.72Q104.97-16.21 104.8-16.75 104.63-17.29 104.21-17.9 103.8-18.51 102.9-18.92 101.99-19.34 100.72-19.34ZM101.16-21.68L101.16-21.68Q103.26-21.68 104.73-21L104.73-21Q104.97-21 104.97-21.78L104.97-21.78 104.97-26.37Q104.97-28.22 104.68-29.69L104.68-29.69Q104.43-30.47 102.14-30.47L102.14-30.47 101.75-30.47Q101.45-30.47 101.45-31.25L101.45-31.25Q101.45-32.03 101.75-32.03L101.75-32.03Q103.21-32.18 104.6-32.42 106-32.67 106.9-32.91 107.8-33.15 108.46-33.4 109.12-33.64 109.46-33.76 109.8-33.89 109.85-33.89L109.85-33.89 109.95-33.89Q110.15-33.89 110.34-33.62 110.54-33.35 110.54-33.11L110.54-33.11Q110.05-31.2 110.05-28.52L110.05-28.52 110.05-7.03Q110.05-4.79 110.34-3.42L110.34-3.42Q110.39-3.08 110.83-2.88 111.27-2.69 111.76-2.64 112.25-2.59 112.69-2.56 113.12-2.54 113.17-2.54L113.17-2.54Q113.27-2.44 113.27-1.95L113.27-1.95Q113.27-0.98 112.98-0.98L112.98-0.98Q112.29-0.93 111.24-0.78 110.2-0.63 109.19-0.46 108.19-0.29 107.29-0.12 106.39 0.05 105.82 0.17 105.26 0.29 105.26 0.29L105.26 0.29Q104.97 0.29 104.97-0.54L104.97-0.54 104.97-1.37Q104.97-1.51 104.9-1.56 104.82-1.61 104.78-1.56L104.78-1.56Q102.43 0.24 99.7 0.24L99.7 0.24Q95.74 0.24 92.81-2.66 89.88-5.57 89.88-9.96L89.88-9.96Q89.88-14.79 93.23-18.24 96.57-21.68 101.16-21.68ZM123.52-21.63L123.52-21.63Q126.26-21.63 129.19-20.8L129.19-20.8Q129.68-18.6 129.72-15.33L129.72-15.33Q129.72-14.94 129.09-14.94L129.09-14.94Q128.01-14.94 127.92-15.33L127.92-15.33Q127.58-17.04 126.48-18.24 125.38-19.43 123.52-19.43L123.52-19.43Q122.11-19.43 121.3-18.8 120.5-18.16 120.5-16.99L120.5-16.99Q120.5-16.31 120.76-15.75 121.03-15.19 121.64-14.7 122.25-14.21 122.72-13.92 123.18-13.62 124.11-13.13L124.11-13.13Q124.45-12.94 124.6-12.89L124.6-12.89Q124.69-12.84 125.33-12.5 125.96-12.16 126.13-12.06 126.31-11.96 126.92-11.6 127.53-11.23 127.77-11.04 128.01-10.84 128.53-10.45 129.04-10.06 129.26-9.77 129.48-9.47 129.85-9.01 130.21-8.54 130.36-8.13 130.51-7.71 130.63-7.2 130.75-6.69 130.75-6.15L130.75-6.15Q130.75-3.08 128.38-1.29 126.01 0.49 122.64 0.49L122.64 0.49Q119.62 0.49 116.34-0.88L116.34-0.88Q116.1-1.71 115.86-3.59 115.61-5.47 115.61-6.4L115.61-6.4Q115.91-6.64 116.3-6.64L116.3-6.64Q117.42-6.64 117.47-6.25L117.47-6.25Q117.86-4.2 119.4-2.95 120.93-1.71 122.74-1.71L122.74-1.71Q124.11-1.71 124.99-2.39 125.87-3.08 125.87-4.39L125.87-4.39Q125.87-4.88 125.74-5.3 125.62-5.71 125.28-6.13 124.94-6.54 124.72-6.81 124.5-7.08 123.84-7.47 123.18-7.86 122.86-8.03 122.55-8.2 121.64-8.67 120.74-9.13 120.4-9.33L120.4-9.33Q118.15-10.5 116.93-11.94 115.71-13.38 115.71-15.43L115.71-15.43Q115.71-18.41 118.05-20.02 120.4-21.63 123.52-21.63Z" opacity="1" transform="matrix(1,0,0,1,0,0)" fill="#000000" class="undefined-text-0" data-fill-palette-color="primary" id="text-0"></path></svg></g></svg></g></svg></g></svg></g></svg></g></svg></g></svg></g></svg></g><defs></defs></svg><rect width="395.52" height="247.2" fill="none" stroke="none" visibility="hidden"></rect></g></svg></g></svg>